<svg xmlns="http://www.w3.org/2000/svg" width="1100" height="600" viewBox="0 0 1100 600"><style>text{font-family:Arial,sans-serif;fill:#111}.t{font-size:26px;font-weight:700}.n{fill:#fff;stroke:#222;stroke-width:2}.l{font-size:15px;text-anchor:middle}.e{stroke:#222;stroke-width:2;fill:none;marker-end:url(#a)}.o{stroke-dasharray:7 6}.note{font-size:13px}</style><defs><marker id="a" markerWidth="10" markerHeight="10" refX="9" refY="3" orient="auto"><path d="M0,0 L0,6 L9,3 z" fill="#222"/></marker></defs><text class="t" x="30" y="40">ESPressio WiFi 0.2.0 — Current Released Dependency Architecture</text><rect class="n" x="440" y="80" width="220" height="60" rx="8"/><text class="l" x="550" y="116">WiFi 0.2.0</text><rect class="n" x="40" y="220" width="180" height="60" rx="8"/><text class="l" x="130" y="255">Observable 3.0.2</text><rect class="n" x="240" y="220" width="190" height="60" rx="8"/><text class="l" x="335" y="255">Serializable 0.11.3</text><rect class="n" x="455" y="220" width="190" height="60" rx="8"/><text class="l" x="550" y="255">Threads 3.1.7</text><rect class="n" x="670" y="220" width="190" height="60" rx="8"/><text class="l" x="765" y="255">Persistence 0.3.2</text><rect class="n" x="880" y="220" width="180" height="60" rx="8"/><text class="l" x="970" y="255">Security 0.4.2</text><rect class="n" x="300" y="385" width="180" height="60" rx="8"/><text class="l" x="390" y="420">Event 6.0.3</text><rect class="n" x="620" y="385" width="180" height="60" rx="8"/><text class="l" x="710" y="420">Command 1.0.3</text><path class="e" d="M485 140 L160 220"/><path class="e" d="M515 140 L350 220"/><path class="e" d="M550 140 L550 220"/><path class="o e" d="M585 140 L745 220"/><path class="o e" d="M615 140 L940 220"/><path class="o e" d="M500 140 L405 385"/><path class="o e" d="M600 140 L695 385"/><rect class="n" x="455" y="500" width="190" height="55" rx="8"/><text class="l" x="550" y="533">Serial 0.8.1</text><text class="note" x="30" y="580">Solid = required; dashed = opt-in. Serial consumes WiFi as an optional terminal integration; WiFi never consumes Serial.</text></svg>
